<svg width="100%" height="100%" viewBox="0 0 335 758" version="1.1" xmlns="http://www.w3.org/2000/svg" style="fill-rule:evenodd;clip-rule:evenodd;stroke-linecap:round;stroke-linejoin:round;stroke-miterlimit:1.5;">
    <rect x="0" y="0" width="334.378" height="757.07" style="fill:none;"/>
    <clipPath id="_clip1">
        <rect x="0" y="0" width="334.378" height="757.07"/>
    </clipPath>
    <g clip-path="url(#_clip1)">
        <g>
            <path d="M336.729,700.86c-0,-0 -105.914,-51.623 -169.087,-82.414c-28.128,-13.71 -45.974,-42.261 -45.974,-73.552l-0,-215.611" style="fill:none;stroke:url(#_Linear2);stroke-width:23px;"/>
            <path d="M121.668,427.681l-0,-218.236c-0,-31.67 18.276,-60.496 46.92,-74.006c63.278,-29.844 168.141,-79.302 168.141,-79.302" style="fill:none;stroke:url(#_Linear3);stroke-width:23px;"/>
            <path d="M131.951,378.498l204.778,0" style="fill:none;stroke:url(#_Linear4);stroke-width:23px;"/>
            <path d="M121.668,427.681l-0,-218.236c-0,-31.67 18.276,-60.496 46.92,-74.006c63.278,-29.844 168.141,-79.302 168.141,-79.302" style="fill:none;stroke:url(#_Linear5);stroke-width:3px;stroke-dasharray:9,6,0,0;"/>
            <path d="M336.729,378.498l-170.255,0" style="fill:none;stroke:url(#_Linear6);stroke-width:3px;stroke-dasharray:9,6,0,0;"/>
            <path d="M336.729,700.86c-0,-0 -105.914,-51.623 -169.087,-82.414c-28.128,-13.71 -45.974,-42.261 -45.974,-73.552l-0,-215.611" style="fill:none;stroke:url(#_Linear7);stroke-width:3px;stroke-dasharray:9,6,0,0;"/>
            <g>
                <circle cx="124.543" cy="378.498" r="124.543" style="fill:#32a832;fill-opacity:0.05;"/>
                <circle cx="124.543" cy="378.498" r="93.51" style="fill:#32a832;fill-opacity:0.2;"/>
                <circle cx="124.543" cy="378.498" r="108.766" style="fill:#32a832;fill-opacity:0.1;"/>
                <circle cx="124.543" cy="378.498" r="77.733" style="fill:url(#_Radial8);stroke:#fff;stroke-width:4.5px;"/>
                <g>
                    <path d="M116.454,361.003l-11.998,-0.095c-0,0 -19.446,-0.001 -19.454,-0.001c-3.69,0.106 -6.485,0.99 -8.37,2.706c-1.874,1.707 -2.824,4.222 -2.917,7.518l0.019,15.415c0,0.011 0,0.022 -0,0.032c-0.167,3.476 0.681,6.357 2.467,8.313c1.758,1.926 4.421,2.925 7.838,2.74c0.015,-0.001 0.029,-0.002 0.044,-0.002c-0,0 13.86,0.051 13.854,0.051c2.749,-0.167 4.635,0.125 5.748,1.07c0.8,0.678 1.261,1.693 1.324,3.185c0,0.009 0,0.017 0,0.025c0,-0 0.076,16.562 0.077,16.569c0.262,2.85 1.279,5.05 2.92,6.574c1.639,1.522 3.889,2.361 6.573,2.538c0,-0 17.553,0.1 17.553,0.1c3.851,-0.055 7.115,-0.808 9.243,-2.985c1.404,-1.437 2.296,-3.488 2.565,-6.322l-0.058,-32.006c0.034,-8.609 -2.794,-15.075 -7.646,-19.329c-4.855,-4.257 -11.714,-6.289 -19.669,-6.09l-0.113,-0.006Zm-0.125,9.734l-11.845,0.068l-18.082,0.151c-0.006,-0 -0.012,-0 -0.018,0c-1.352,0.044 -2.299,0.276 -2.914,0.863c-0.606,0.579 -0.945,1.551 -0.889,3.244c-0,-0.005 0.084,9.251 0.084,9.251c0,0.009 0.001,0.018 0.001,0.028c0.054,1.051 0.389,1.84 0.93,2.415c0.785,0.834 2.045,1.238 3.709,1.213c-0.005,0 14.148,0.171 14.148,0.171c6.393,0.34 13.865,5.947 13.91,13.876l0.092,12.42c-0.09,1.236 0.253,2.04 0.808,2.573c0.548,0.528 1.343,0.803 2.283,0.904c0.028,0.003 0.056,0.005 0.084,0.005l12.15,-0.045c0.985,0.023 1.603,-0.18 1.991,-0.505c0.427,-0.357 0.641,-0.892 0.642,-1.654c0,0 0.07,-28.268 0.07,-28.268c0.069,-5.761 -1.368,-10.124 -4.214,-12.953c-2.866,-2.847 -7.177,-4.18 -12.945,-3.757l0.005,-0Z" style="fill:#fff;"/>
                    <path d="M115.68,372.114c0.337,4.504 1.754,7.983 4.178,10.365c2.542,2.496 6.206,3.816 10.986,3.805l0.244,-0.002c0.31,-0.004 0.625,-0.013 0.944,-0.028c0.01,0.387 0.013,0.78 0.008,1.181l-0.021,8.563l-0.266,0.003l-0.359,-0c-7.407,-0.03 -13.813,-2.049 -18.436,-6.052c-4.603,-3.986 -7.418,-9.93 -7.726,-17.775l10.448,-0.06Zm-10.496,-12.573l10.444,0.082l0.045,-18.341c0.002,-0.762 0.216,-1.297 0.643,-1.655c0.363,-0.304 0.929,-0.501 1.81,-0.506l0.18,0.001l12.15,-0.044l0.084,0.005c0.941,0.101 1.735,0.376 2.284,0.904c0.555,0.533 0.897,1.337 0.807,2.573l0.093,12.42c0.045,7.929 7.516,13.536 13.91,13.876c-0,-0 14.153,0.171 14.148,0.171l0.307,0c1.512,0.027 2.666,0.431 3.402,1.213c0.541,0.575 0.876,1.364 0.929,2.415c0.001,0.009 0.001,0.019 0.001,0.028c0,-0 0.085,9.256 0.085,9.25c0.056,1.694 -0.283,2.666 -0.889,3.245c-0.615,0.587 -1.563,0.819 -2.915,0.863c-0.006,-0 -0.012,0 -0.018,0l-17.359,0.144c0,0.081 0,0.164 0,0.246l0.017,9.487l18.743,0.023l0.172,-0.005c3.607,-0.128 6.346,-0.976 8.203,-2.632c1.871,-1.669 2.818,-4.147 2.911,-7.438l-0.019,-15.415c0,-0.011 0,-0.022 0.001,-0.032c0.166,-3.476 -0.681,-6.357 -2.468,-8.313c-1.593,-1.745 -3.929,-2.729 -6.896,-2.761l-0.155,-0.001c-0.257,0.001 -0.52,0.008 -0.787,0.022l-0.043,0.001l-13.854,-0.05c-0.43,0.026 -0.839,0.041 -1.226,0.044l-0.23,0c-1.974,-0.01 -3.388,-0.347 -4.293,-1.114c-0.799,-0.679 -1.261,-1.693 -1.323,-3.186c-0,-0.008 -0.001,-0.016 -0.001,-0.024c0,0 -0.076,-16.562 -0.076,-16.569c-0.263,-2.85 -1.279,-5.05 -2.921,-6.574c-1.639,-1.522 -3.89,-2.362 -6.575,-2.538l-17.55,-0.1c-3.851,0.055 -7.116,0.808 -9.243,2.985c-1.405,1.437 -2.296,3.488 -2.565,6.322l0.037,20.978Z" style="fill:#fff;"/>
                </g>
            </g>
        </g>
    </g>
    <defs>
        <linearGradient id="_Linear2" x1="0" y1="0" x2="1" y2="0" gradientUnits="userSpaceOnUse" gradientTransform="matrix(-137.671,1.68599e-14,-1.68599e-14,-137.671,318.613,64.6814)"><stop offset="0" style="stop-color:#bd1821;stop-opacity:0.19"/><stop offset="1" style="stop-color:#14512a;stop-opacity:0.06"/></linearGradient>
        <linearGradient id="_Linear3" x1="0" y1="0" x2="1" y2="0" gradientUnits="userSpaceOnUse" gradientTransform="matrix(-137.671,1.68599e-14,-1.68599e-14,-137.671,318.613,64.6814)"><stop offset="0" style="stop-color:#f8b71d;stop-opacity:0.19"/><stop offset="1" style="stop-color:#14512a;stop-opacity:0.06"/></linearGradient>
        <linearGradient id="_Linear4" x1="0" y1="0" x2="1" y2="0" gradientUnits="userSpaceOnUse" gradientTransform="matrix(-81.0364,9.92409e-15,-9.92409e-15,-81.0364,322.177,378.535)"><stop offset="0" style="stop-color:#32a832;stop-opacity:0.19"/><stop offset="1" style="stop-color:#14512a;stop-opacity:0.06"/></linearGradient>
        <linearGradient id="_Linear5" x1="0" y1="0" x2="1" y2="0" gradientUnits="userSpaceOnUse" gradientTransform="matrix(-137.671,1.68599e-14,-1.68599e-14,-137.671,318.613,64.6814)"><stop offset="0" style="stop-color:#f8b71d;stop-opacity:1"/><stop offset="1" style="stop-color:#14512a;stop-opacity:0.3"/></linearGradient>
        <linearGradient id="_Linear6" x1="0" y1="0" x2="1" y2="0" gradientUnits="userSpaceOnUse" gradientTransform="matrix(-161.367,1.97617e-14,-1.97617e-14,-161.367,336.729,378.535)"><stop offset="0" style="stop-color:#32a832;stop-opacity:1"/><stop offset="1" style="stop-color:#14512a;stop-opacity:0.3"/></linearGradient>
        <linearGradient id="_Linear7" x1="0" y1="0" x2="1" y2="0" gradientUnits="userSpaceOnUse" gradientTransform="matrix(-137.671,1.68599e-14,-1.68599e-14,-137.671,318.613,64.6814)"><stop offset="0" style="stop-color:#bd1821;stop-opacity:1"/><stop offset="1" style="stop-color:#14512a;stop-opacity:0.3"/></linearGradient>
        <radialGradient id="_Radial8" cx="0" cy="0" r="1" gradientUnits="userSpaceOnUse" gradientTransform="matrix(8.56821e-15,139.929,-139.929,8.56821e-15,124.543,339.1)"><stop offset="0" style="stop-color:#32a832;stop-opacity:1"/><stop offset="0.64" style="stop-color:#2c9f2c;stop-opacity:1"/><stop offset="1" style="stop-color:#0d6f0d;stop-opacity:1"/></radialGradient>
    </defs>
</svg>
