<?xml version="1.0" encoding="UTF-8"?> <svg xmlns="http://www.w3.org/2000/svg" width="100%" height="100%" viewBox="0 0 323 103" version="1.1" style="fill-rule:evenodd;clip-rule:evenodd;stroke-linejoin:round;stroke-miterlimit:2;" fill="#fff"><path d="M322.069,51.145c-0,-28.228 -22.918,-51.145 -51.145,-51.145l-219.779,0c-28.228,0 -51.145,22.917 -51.145,51.145c-0,28.227 22.917,51.144 51.145,51.144l219.779,0c28.227,0 51.145,-22.917 51.145,-51.144Zm-2,-0c-0,27.123 -22.021,49.144 -49.145,49.144l-219.779,0c-27.124,0 -49.145,-22.021 -49.145,-49.144c-0,-27.124 22.021,-49.145 49.145,-49.145l219.779,0c27.124,0 49.145,22.021 49.145,49.145Z"></path><g><path d="M126.238,68.25l0,-31.082l8.792,-0l-0,24.11l14.831,0l-0,6.972l-23.623,-0Z" style="fill-rule:nonzero;"></path><path d="M159.274,68.25l-0,-24.111l-9.547,-0l0,-6.971l27.841,-0l-0,6.971l-9.502,-0l-0,24.111l-8.792,-0Z" style="fill-rule:nonzero;"></path><path d="M198.126,68.871c-2.456,0 -4.728,-0.392 -6.815,-1.176c-2.087,-0.785 -3.893,-1.902 -5.418,-3.353c-1.524,-1.45 -2.716,-3.16 -3.574,-5.128c-0.858,-1.969 -1.288,-4.137 -1.288,-6.505c0,-2.369 0.43,-4.537 1.288,-6.505c0.858,-1.969 2.05,-3.678 3.574,-5.129c1.525,-1.45 3.331,-2.568 5.418,-3.352c2.087,-0.785 4.359,-1.177 6.815,-1.177c2.872,-0 5.44,0.503 7.704,1.51c2.265,1.006 4.152,2.457 5.662,4.351l-5.595,5.062c-1.007,-1.184 -2.109,-2.087 -3.308,-2.709c-1.199,-0.621 -2.538,-0.932 -4.019,-0.932c-1.272,-0 -2.442,0.207 -3.507,0.622c-1.066,0.414 -1.976,1.014 -2.731,1.798c-0.755,0.784 -1.347,1.724 -1.776,2.82c-0.429,1.095 -0.644,2.308 -0.644,3.641c-0,1.332 0.215,2.545 0.644,3.641c0.429,1.095 1.021,2.035 1.776,2.819c0.755,0.785 1.665,1.384 2.731,1.799c1.065,0.414 2.235,0.621 3.507,0.621c1.481,0 2.82,-0.311 4.019,-0.932c1.199,-0.622 2.301,-1.525 3.308,-2.709l5.595,5.062c-1.51,1.865 -3.397,3.308 -5.662,4.329c-2.264,1.022 -4.832,1.532 -7.704,1.532Z" style="fill-rule:nonzero;"></path><path d="M213.357,68.25l13.72,-31.082l8.659,-0l13.765,31.082l-9.147,-0l-10.746,-26.775l3.464,-0l-10.746,26.775l-8.969,-0Zm7.504,-6.039l2.264,-6.483l15.186,-0l2.265,6.483l-19.715,-0Z" style="fill-rule:nonzero;"></path><path d="M259.269,68.25l0,-24.111l-9.546,-0l-0,-6.971l27.84,-0l0,6.971l-9.502,-0l-0,24.111l-8.792,-0Z" style="fill-rule:nonzero;"></path></g><path d="M45.816,31.123c0.897,-0.898 2.115,-1.404 3.384,-1.405l19.153,0c0.424,-0.001 0.831,0.167 1.13,0.466l12.769,12.769c0.299,0.3 0.467,0.707 0.466,1.13l0,25.538c0,2.627 -2.161,4.789 -4.788,4.789l-28.73,-0c-2.627,-0 -4.789,-2.162 -4.789,-4.789l0,-35.114c0,-1.271 0.505,-2.49 1.405,-3.384m11.221,11.205c1.793,-0 3.269,-1.476 3.269,-3.269c-0,-1.794 -1.476,-3.269 -3.269,-3.269c-1.793,-0 -3.269,1.475 -3.269,3.269c-0,1.793 1.476,3.269 3.269,3.269m-6.637,14.524c0,-1.101 0.891,-1.995 1.992,-1.995l22.346,0c1.053,0.058 1.888,0.941 1.888,1.995c0,1.053 -0.831,1.934 -1.882,1.995l-22.346,0c-1.095,0 -1.996,-0.9 -1.998,-1.995m0,9.577c0,-1.101 0.891,-1.995 1.992,-1.995l12.769,-0c1.053,0.058 1.889,0.94 1.889,1.995c-0,1.053 -0.832,1.934 -1.883,1.995l-12.769,0c-1.095,0 -1.996,-0.9 -1.998,-1.995m6.64,-21.918c-2.235,0 -4.274,0.84 -5.816,2.222c-0.916,0.82 -0.201,2.139 1.028,2.139l9.57,-0c1.232,-0 1.947,-1.319 1.031,-2.139c-1.597,-1.434 -3.67,-2.226 -5.816,-2.222l0.003,0Z"></path></svg> 