<?xml version="1.0" encoding="UTF-8"?> <svg xmlns="http://www.w3.org/2000/svg" width="100%" height="100%" viewBox="0 0 323 103" version="1.1" style="fill-rule:evenodd;clip-rule:evenodd;stroke-linejoin:round;stroke-miterlimit:2;" fill="#fff"><path d="M57.193,27.819c-1.752,-0 -3.193,1.441 -3.193,3.192l0,1.596c0,1.751 1.441,3.192 3.193,3.192l9.576,0c1.752,0 3.193,-1.441 3.193,-3.192l-0,-1.596c-0,-1.751 -1.441,-3.192 -3.193,-3.192l-9.576,-0Zm-7.183,3.192l-1.596,-0c-2.627,-0 -4.788,2.161 -4.788,4.788l-0,31.923c-0,2.627 2.161,4.788 4.788,4.788l27.134,0c2.627,0 4.788,-2.161 4.788,-4.788l0,-31.923c0,-2.627 -2.161,-4.788 -4.788,-4.788l-1.596,-0l-0,1.596c-0,3.94 -3.242,7.183 -7.183,7.183l-9.576,-0c-3.941,-0 -7.183,-3.243 -7.183,-7.183l0,-1.596Zm21.388,15.642c1.051,0.788 1.267,2.301 0.479,3.352l-9.577,12.769c-0.758,1.01 -2.192,1.256 -3.243,0.555l-4.789,-3.192c-0.678,-0.441 -1.088,-1.198 -1.088,-2.007c0,-1.313 1.081,-2.394 2.395,-2.394c0.481,0 0.952,0.146 1.349,0.417l2.905,1.935l8.217,-10.956c0.452,-0.603 1.163,-0.958 1.916,-0.958c0.517,0 1.022,0.168 1.436,0.479"></path><g><path d="M138.24,66.35l13.72,-31.082l8.659,0l13.765,31.082l-9.147,0l-10.746,-26.775l3.464,0l-10.746,26.775l-8.969,0Zm7.504,-6.039l2.265,-6.483l15.185,0l2.265,6.483l-19.715,0Z" style="fill-rule:nonzero;"></path><path d="M192.234,66.972c-2.546,-0 -4.995,-0.319 -7.349,-0.955c-2.353,-0.636 -4.27,-1.458 -5.75,-2.464l2.886,-6.483c1.391,0.888 2.997,1.621 4.818,2.198c1.82,0.577 3.634,0.866 5.439,0.866c1.214,-0 2.191,-0.111 2.931,-0.333c0.74,-0.222 1.28,-0.518 1.621,-0.888c0.34,-0.37 0.51,-0.807 0.51,-1.31c0,-0.711 -0.325,-1.273 -0.977,-1.688c-0.651,-0.414 -1.495,-0.754 -2.531,-1.021c-1.036,-0.266 -2.183,-0.533 -3.441,-0.799c-1.258,-0.267 -2.516,-0.607 -3.774,-1.021c-1.258,-0.415 -2.405,-0.955 -3.441,-1.621c-1.036,-0.666 -1.88,-1.539 -2.531,-2.62c-0.652,-1.08 -0.977,-2.449 -0.977,-4.107c-0,-1.865 0.51,-3.552 1.532,-5.062c1.021,-1.51 2.553,-2.723 4.595,-3.641c2.043,-0.918 4.589,-1.377 7.638,-1.377c2.042,0 4.048,0.23 6.016,0.689c1.969,0.458 3.723,1.132 5.262,2.02l-2.709,6.527c-1.48,-0.799 -2.945,-1.398 -4.395,-1.798c-1.451,-0.4 -2.857,-0.6 -4.219,-0.6c-1.213,0 -2.19,0.126 -2.93,0.378c-0.74,0.252 -1.273,0.585 -1.599,0.999c-0.325,0.414 -0.488,0.888 -0.488,1.421c-0,0.681 0.318,1.221 0.954,1.621c0.637,0.399 1.481,0.725 2.531,0.976c1.051,0.252 2.206,0.511 3.464,0.777c1.258,0.267 2.516,0.6 3.774,1c1.258,0.399 2.405,0.932 3.441,1.598c1.036,0.666 1.873,1.539 2.509,2.62c0.636,1.08 0.955,2.435 0.955,4.063c-0,1.805 -0.511,3.47 -1.532,4.995c-1.021,1.524 -2.546,2.746 -4.574,3.663c-2.027,0.918 -4.581,1.377 -7.659,1.377Z" style="fill-rule:nonzero;"></path><path d="M230.154,66.972c-2.487,-0 -4.781,-0.4 -6.883,-1.199c-2.101,-0.799 -3.929,-1.932 -5.483,-3.397c-1.554,-1.465 -2.761,-3.175 -3.619,-5.129c-0.859,-1.953 -1.288,-4.099 -1.288,-6.438c0,-2.338 0.429,-4.485 1.288,-6.438c0.858,-1.954 2.065,-3.664 3.619,-5.129c1.554,-1.465 3.382,-2.597 5.483,-3.397c2.102,-0.799 4.396,-1.199 6.883,-1.199c2.516,0 4.818,0.4 6.905,1.199c2.086,0.8 3.9,1.932 5.439,3.397c1.539,1.465 2.745,3.175 3.619,5.129c0.873,1.953 1.31,4.1 1.31,6.438c-0,2.339 -0.437,4.492 -1.31,6.461c-0.874,1.968 -2.08,3.678 -3.619,5.128c-1.539,1.451 -3.353,2.576 -5.439,3.375c-2.087,0.799 -4.389,1.199 -6.905,1.199Zm-0,-7.282c1.184,-0 2.287,-0.208 3.308,-0.622c1.021,-0.414 1.909,-1.014 2.664,-1.798c0.755,-0.785 1.347,-1.725 1.776,-2.82c0.429,-1.095 0.644,-2.309 0.644,-3.641c0,-1.362 -0.215,-2.583 -0.644,-3.663c-0.429,-1.081 -1.021,-2.013 -1.776,-2.798c-0.755,-0.784 -1.643,-1.383 -2.664,-1.798c-1.021,-0.414 -2.124,-0.622 -3.308,-0.622c-1.184,0 -2.287,0.208 -3.308,0.622c-1.021,0.415 -1.909,1.014 -2.664,1.798c-0.755,0.785 -1.347,1.717 -1.776,2.798c-0.43,1.08 -0.644,2.301 -0.644,3.663c-0,1.332 0.214,2.546 0.644,3.641c0.429,1.095 1.021,2.035 1.776,2.82c0.755,0.784 1.643,1.384 2.664,1.798c1.021,0.414 2.124,0.622 3.308,0.622Z" style="fill-rule:nonzero;"></path></g><path d="M322.069,51.145c-0,-28.228 -22.918,-51.145 -51.145,-51.145l-219.779,0c-28.228,0 -51.145,22.917 -51.145,51.145c0,28.227 22.917,51.144 51.145,51.144l219.779,0c28.227,0 51.145,-22.917 51.145,-51.144Zm-2,-0c-0,27.123 -22.021,49.144 -49.145,49.144l-219.779,0c-27.124,0 -49.145,-22.021 -49.145,-49.144c0,-27.124 22.021,-49.145 49.145,-49.145l219.779,0c27.124,0 49.145,22.021 49.145,49.145Z"></path></svg> 