<?xml version="1.0" encoding="UTF-8"?> <svg xmlns="http://www.w3.org/2000/svg" width="100%" height="100%" viewBox="0 0 323 103" version="1.1" style="fill-rule:evenodd;clip-rule:evenodd;stroke-linejoin:round;stroke-miterlimit:2;" fill="#fff"><path d="M39.254,38.851c0,-3.083 2.503,-5.586 5.587,-5.586l33.518,0c3.084,0 5.587,2.5 5.587,5.586l-0,10.398c-0.001,13.006 -8.542,24.57 -20.973,28.395c-0.894,0.277 -1.852,0.277 -2.746,-0c-12.431,-3.825 -20.972,-15.389 -20.973,-28.395l0,-10.398Zm22.346,15.164c3.94,-0 7.183,-3.243 7.183,-7.183c-0,-3.94 -3.243,-7.182 -7.183,-7.182c-3.94,-0 -7.182,3.242 -7.182,7.182c-0,3.94 3.242,7.183 7.182,7.183m13.254,9.235c-3.329,-3.841 -8.171,-6.049 -13.254,-6.043c-5.083,-0.006 -9.925,2.202 -13.254,6.043c3.175,4.678 7.851,8.138 13.254,9.806c5.403,-1.668 10.079,-5.128 13.254,-9.806"></path><path d="M322.069,51.145c-0,-28.228 -22.918,-51.145 -51.145,-51.145l-219.779,0c-28.228,0 -51.145,22.917 -51.145,51.145c-0,28.227 22.917,51.144 51.145,51.144l219.779,0c28.227,0 51.145,-22.917 51.145,-51.144Zm-2,-0c-0,27.123 -22.021,49.144 -49.145,49.144l-219.779,0c-27.124,0 -49.145,-22.021 -49.145,-49.144c0,-27.124 22.021,-49.145 49.145,-49.145l219.779,0c27.124,0 49.145,22.021 49.145,49.145Z"></path><g><path d="M142.849,68.25l0,-31.082l14.209,-0c2.842,-0 5.292,0.458 7.349,1.376c2.057,0.918 3.648,2.242 4.773,3.974c1.125,1.732 1.688,3.782 1.688,6.15c-0,2.338 -0.563,4.366 -1.688,6.083c-1.125,1.717 -2.716,3.042 -4.773,3.974c-2.057,0.933 -4.507,1.399 -7.349,1.399l-9.324,-0l3.907,-3.819l0,11.945l-8.792,-0Zm8.792,-11.012l-3.907,-4.041l8.791,0c1.836,0 3.205,-0.4 4.108,-1.199c0.903,-0.799 1.354,-1.909 1.354,-3.33c0,-1.451 -0.451,-2.575 -1.354,-3.375c-0.903,-0.799 -2.272,-1.199 -4.108,-1.199l-8.791,0l3.907,-4.04l0,17.184Z" style="fill-rule:nonzero;"></path><path d="M195.556,68.871c-2.457,0 -4.737,-0.392 -6.838,-1.176c-2.102,-0.785 -3.915,-1.902 -5.44,-3.353c-1.524,-1.45 -2.716,-3.16 -3.574,-5.128c-0.859,-1.969 -1.288,-4.137 -1.288,-6.505c0,-2.369 0.429,-4.537 1.288,-6.505c0.858,-1.969 2.057,-3.678 3.596,-5.129c1.54,-1.45 3.368,-2.568 5.484,-3.352c2.117,-0.785 4.433,-1.177 6.949,-1.177c2.931,-0 5.551,0.488 7.86,1.465c2.308,0.977 4.218,2.383 5.727,4.218l-5.594,5.062c-1.066,-1.154 -2.213,-2.02 -3.441,-2.597c-1.229,-0.577 -2.598,-0.866 -4.108,-0.866c-1.332,-0 -2.546,0.207 -3.641,0.622c-1.095,0.414 -2.028,1.014 -2.797,1.798c-0.77,0.784 -1.369,1.717 -1.798,2.797c-0.43,1.081 -0.644,2.302 -0.644,3.664c-0,1.302 0.214,2.501 0.644,3.596c0.429,1.095 1.028,2.035 1.798,2.82c0.769,0.784 1.695,1.391 2.775,1.82c1.08,0.43 2.272,0.644 3.574,0.644c1.303,0 2.576,-0.214 3.819,-0.644c1.243,-0.429 2.501,-1.162 3.774,-2.198l4.929,6.172c-1.776,1.273 -3.833,2.25 -6.172,2.931c-2.339,0.681 -4.633,1.021 -6.882,1.021Zm5.284,-5.106l-0,-11.722l7.77,-0l0,12.876l-7.77,-1.154Z" style="fill-rule:nonzero;"></path><path d="M218.645,68.25l0,-31.082l14.209,-0c2.842,-0 5.291,0.458 7.349,1.376c2.057,0.918 3.648,2.242 4.773,3.974c1.125,1.732 1.687,3.782 1.687,6.15c0,2.338 -0.562,4.359 -1.687,6.061c-1.125,1.702 -2.716,3.005 -4.773,3.907c-2.058,0.903 -4.507,1.355 -7.349,1.355l-9.325,-0l3.908,-3.686l-0,11.945l-8.792,-0Zm19.227,-0l-7.727,-11.323l9.369,-0l7.771,11.323l-9.413,-0Zm-10.435,-11.012l-3.908,-4.041l8.792,0c1.835,0 3.205,-0.4 4.107,-1.199c0.903,-0.799 1.355,-1.909 1.355,-3.33c-0,-1.451 -0.452,-2.575 -1.355,-3.375c-0.902,-0.799 -2.272,-1.199 -4.107,-1.199l-8.792,0l3.908,-4.04l-0,17.184Z" style="fill-rule:nonzero;"></path></g></svg> 