<?xml version="1.0" encoding="UTF-8"?> <svg xmlns="http://www.w3.org/2000/svg" width="100%" height="100%" viewBox="0 0 323 103" version="1.1" style="fill-rule:evenodd;clip-rule:evenodd;stroke-linejoin:round;stroke-miterlimit:2;" fill="#fff"><g><path d="M104.113,67.047l-0,-31.082l14.209,-0c2.841,-0 5.291,0.458 7.348,1.376c2.058,0.918 3.649,2.242 4.774,3.974c1.125,1.732 1.687,3.782 1.687,6.15c-0,2.339 -0.562,4.366 -1.687,6.083c-1.125,1.717 -2.716,3.042 -4.774,3.974c-2.057,0.933 -4.507,1.399 -7.348,1.399l-9.325,-0l3.908,-3.819l-0,11.945l-8.792,-0Zm8.792,-11.012l-3.908,-4.041l8.792,0c1.835,0 3.204,-0.4 4.107,-1.199c0.903,-0.799 1.354,-1.909 1.354,-3.33c0,-1.45 -0.451,-2.575 -1.354,-3.375c-0.903,-0.799 -2.272,-1.198 -4.107,-1.198l-8.792,-0l3.908,-4.041l-0,17.184Z" style="fill-rule:nonzero;"></path><path d="M156.775,67.668c-2.457,0 -4.729,-0.392 -6.816,-1.176c-2.087,-0.785 -3.893,-1.902 -5.417,-3.353c-1.525,-1.45 -2.716,-3.16 -3.575,-5.128c-0.858,-1.969 -1.288,-4.137 -1.288,-6.505c0,-2.368 0.43,-4.537 1.288,-6.505c0.859,-1.969 2.05,-3.678 3.575,-5.129c1.524,-1.45 3.33,-2.568 5.417,-3.352c2.087,-0.785 4.359,-1.177 6.816,-1.177c2.871,0 5.439,0.503 7.703,1.51c2.265,1.006 4.152,2.457 5.662,4.351l-5.595,5.062c-1.006,-1.184 -2.109,-2.087 -3.308,-2.708c-1.199,-0.622 -2.538,-0.933 -4.018,-0.933c-1.273,0 -2.443,0.207 -3.508,0.622c-1.066,0.414 -1.976,1.014 -2.731,1.798c-0.755,0.785 -1.347,1.724 -1.776,2.82c-0.429,1.095 -0.644,2.309 -0.644,3.641c0,1.332 0.215,2.545 0.644,3.641c0.429,1.095 1.021,2.035 1.776,2.819c0.755,0.785 1.665,1.384 2.731,1.799c1.065,0.414 2.235,0.621 3.508,0.621c1.48,0 2.819,-0.311 4.018,-0.932c1.199,-0.622 2.302,-1.525 3.308,-2.709l5.595,5.062c-1.51,1.865 -3.397,3.308 -5.662,4.329c-2.264,1.022 -4.832,1.532 -7.703,1.532Z" style="fill-rule:nonzero;"></path><path d="M178.488,67.047l-0,-31.082l7.237,-0l12.877,21.135l-3.819,0l12.522,-21.135l7.238,-0l0.089,31.082l-8.082,-0l-0.089,-18.783l1.377,0l-9.369,15.719l-3.908,-0l-9.635,-15.719l1.687,0l0,18.783l-8.125,-0Z" style="fill-rule:nonzero;"></path><path d="M236.211,67.668c-2.545,0 -4.995,-0.318 -7.348,-0.954c-2.354,-0.637 -4.27,-1.458 -5.751,-2.465l2.887,-6.483c1.391,0.889 2.997,1.621 4.817,2.198c1.821,0.578 3.634,0.866 5.44,0.866c1.213,0 2.19,-0.111 2.93,-0.333c0.74,-0.222 1.281,-0.518 1.621,-0.888c0.34,-0.37 0.511,-0.806 0.511,-1.31c-0,-0.71 -0.326,-1.273 -0.977,-1.687c-0.651,-0.414 -1.495,-0.755 -2.531,-1.021c-1.036,-0.267 -2.183,-0.533 -3.441,-0.8c-1.258,-0.266 -2.517,-0.606 -3.775,-1.021c-1.258,-0.414 -2.405,-0.954 -3.441,-1.62c-1.036,-0.667 -1.88,-1.54 -2.531,-2.62c-0.651,-1.081 -0.977,-2.45 -0.977,-4.108c0,-1.864 0.511,-3.552 1.532,-5.061c1.021,-1.51 2.553,-2.724 4.596,-3.641c2.042,-0.918 4.588,-1.377 7.637,-1.377c2.043,0 4.048,0.229 6.017,0.688c1.968,0.459 3.722,1.133 5.262,2.021l-2.709,6.527c-1.48,-0.799 -2.945,-1.399 -4.396,-1.798c-1.45,-0.4 -2.857,-0.6 -4.218,-0.6c-1.214,0 -2.191,0.126 -2.931,0.377c-0.74,0.252 -1.273,0.585 -1.598,1c-0.326,0.414 -0.489,0.888 -0.489,1.42c0,0.681 0.318,1.222 0.955,1.621c0.636,0.4 1.48,0.725 2.531,0.977c1.051,0.252 2.205,0.511 3.463,0.777c1.258,0.266 2.516,0.6 3.775,0.999c1.258,0.4 2.405,0.933 3.441,1.599c1.036,0.666 1.872,1.539 2.509,2.619c0.636,1.081 0.954,2.435 0.954,4.063c0,1.806 -0.51,3.471 -1.532,4.996c-1.021,1.524 -2.545,2.745 -4.573,3.663c-2.028,0.917 -4.581,1.376 -7.66,1.376Z" style="fill-rule:nonzero;"></path><path d="M274.131,67.668c-2.486,0 -4.78,-0.399 -6.882,-1.199c-2.102,-0.799 -3.93,-1.931 -5.484,-3.396c-1.554,-1.466 -2.76,-3.175 -3.619,-5.129c-0.858,-1.954 -1.287,-4.1 -1.287,-6.438c-0,-2.339 0.429,-4.485 1.287,-6.439c0.859,-1.953 2.065,-3.663 3.619,-5.128c1.554,-1.466 3.382,-2.598 5.484,-3.397c2.102,-0.799 4.396,-1.199 6.882,-1.199c2.517,0 4.818,0.4 6.905,1.199c2.087,0.799 3.9,1.931 5.439,3.397c1.54,1.465 2.746,3.175 3.619,5.128c0.873,1.954 1.31,4.1 1.31,6.439c0,2.338 -0.437,4.492 -1.31,6.46c-0.873,1.969 -2.079,3.678 -3.619,5.129c-1.539,1.45 -3.352,2.575 -5.439,3.374c-2.087,0.8 -4.388,1.199 -6.905,1.199Zm0,-7.282c1.184,0 2.287,-0.207 3.308,-0.621c1.022,-0.415 1.91,-1.014 2.665,-1.799c0.754,-0.784 1.346,-1.724 1.776,-2.819c0.429,-1.096 0.644,-2.309 0.644,-3.641c-0,-1.362 -0.215,-2.583 -0.644,-3.664c-0.43,-1.08 -1.022,-2.012 -1.776,-2.797c-0.755,-0.784 -1.643,-1.384 -2.665,-1.798c-1.021,-0.415 -2.124,-0.622 -3.308,-0.622c-1.184,0 -2.286,0.207 -3.308,0.622c-1.021,0.414 -1.909,1.014 -2.664,1.798c-0.755,0.785 -1.347,1.717 -1.776,2.797c-0.429,1.081 -0.644,2.302 -0.644,3.664c0,1.332 0.215,2.545 0.644,3.641c0.429,1.095 1.021,2.035 1.776,2.819c0.755,0.785 1.643,1.384 2.664,1.799c1.022,0.414 2.124,0.621 3.308,0.621Z" style="fill-rule:nonzero;"></path></g><path d="M57.324,36.871c-3.337,-3.323 -6.819,-4.972 -10.166,-5.221c-3.783,-0.277 -7.123,1.258 -9.53,3.686c-4.73,4.772 -6.176,13.399 -0.263,19.336c0.017,0.017 0.035,0.033 0.052,0.049l18.735,17.33c0.659,0.612 1.692,0.612 2.351,0l18.735,-17.33l0.038,-0.038c5.996,-5.913 4.547,-14.541 -0.208,-19.313c-2.413,-2.427 -5.764,-3.966 -9.554,-3.693c-3.354,0.242 -6.846,1.878 -10.186,5.194l-0.004,0Zm-1.176,6.854c-0.34,-0.792 -1.123,-1.308 -1.985,-1.308c-0.803,-0 -1.543,0.447 -1.915,1.159l-2.96,5.654l-3.987,-0c-1.185,-0 -2.161,0.975 -2.161,2.161c-0,1.185 0.976,2.161 2.161,2.161l5.294,-0c0.806,-0 1.542,-0.45 1.916,-1.159l1.462,-2.79l3.607,8.368c0.34,0.793 1.124,1.309 1.986,1.309c0.652,0 1.269,-0.295 1.679,-0.801l3.998,-4.927l4.156,-0c1.186,-0 2.161,-0.976 2.161,-2.161c0,-1.186 -0.975,-2.161 -2.161,-2.161l-5.187,-0c-0.651,-0.001 -1.27,0.292 -1.68,0.798l-2.397,2.957l-3.99,-9.257l0.003,-0.003Z"></path><path d="M322.069,51.145c-0,-28.228 -22.918,-51.145 -51.145,-51.145l-219.779,0c-28.228,0 -51.145,22.917 -51.145,51.145c-0,28.227 22.917,51.144 51.145,51.144l219.779,0c28.227,0 51.145,-22.917 51.145,-51.144Zm-2,-0c-0,27.123 -22.021,49.144 -49.145,49.144l-219.779,0c-27.124,0 -49.145,-22.021 -49.145,-49.144c-0,-27.124 22.021,-49.145 49.145,-49.145l219.779,0c27.124,0 49.145,22.021 49.145,49.145Z"></path></svg> 