<?xml version="1.0" encoding="UTF-8"?> <svg xmlns="http://www.w3.org/2000/svg" width="100%" height="100%" viewBox="0 0 323 103" version="1.1" fill="#fff" style="fill-rule:evenodd;clip-rule:evenodd;stroke-linejoin:round;stroke-miterlimit:2;"><path d="M322.069,51.145c-0,-28.228 -22.918,-51.145 -51.145,-51.145l-219.779,0c-28.228,0 -51.145,22.917 -51.145,51.145c-0,28.227 22.917,51.144 51.145,51.144l219.779,0c28.227,0 51.145,-22.917 51.145,-51.144Zm-224.483,17.726c-2.545,0 -4.995,-0.318 -7.348,-0.954c-2.354,-0.637 -4.27,-1.458 -5.75,-2.465l2.886,-6.483c1.391,0.888 2.997,1.621 4.818,2.198c1.82,0.578 3.633,0.866 5.439,0.866c1.214,0 2.19,-0.111 2.93,-0.333c0.741,-0.222 1.281,-0.518 1.621,-0.888c0.341,-0.37 0.511,-0.807 0.511,-1.31c-0,-0.71 -0.326,-1.273 -0.977,-1.687c-0.651,-0.415 -1.495,-0.755 -2.531,-1.021c-1.036,-0.267 -2.183,-0.533 -3.441,-0.8c-1.258,-0.266 -2.516,-0.606 -3.774,-1.021c-1.259,-0.414 -2.406,-0.955 -3.442,-1.621c-1.036,-0.666 -1.879,-1.539 -2.531,-2.619c-0.651,-1.081 -0.977,-2.45 -0.977,-4.108c0,-1.865 0.511,-3.552 1.532,-5.062c1.022,-1.509 2.554,-2.723 4.596,-3.641c2.043,-0.917 4.588,-1.376 7.637,-1.376c2.043,-0 4.048,0.229 6.017,0.688c1.968,0.459 3.722,1.132 5.262,2.021l-2.709,6.527c-1.48,-0.8 -2.945,-1.399 -4.396,-1.799c-1.45,-0.399 -2.856,-0.599 -4.218,-0.599c-1.214,-0 -2.191,0.126 -2.931,0.377c-0.74,0.252 -1.273,0.585 -1.598,0.999c-0.326,0.415 -0.489,0.889 -0.489,1.421c0,0.681 0.319,1.221 0.955,1.621c0.637,0.4 1.48,0.725 2.531,0.977c1.051,0.252 2.205,0.511 3.463,0.777c1.259,0.266 2.517,0.599 3.775,0.999c1.258,0.4 2.405,0.932 3.441,1.599c1.036,0.666 1.872,1.539 2.509,2.619c0.636,1.081 0.954,2.435 0.954,4.063c0,1.806 -0.51,3.471 -1.532,4.995c-1.021,1.525 -2.545,2.746 -4.573,3.664c-2.028,0.917 -4.581,1.376 -7.66,1.376Zm75.308,0c-2.457,0 -4.729,-0.392 -6.816,-1.176c-2.087,-0.785 -3.893,-1.902 -5.417,-3.353c-1.525,-1.45 -2.716,-3.16 -3.575,-5.128c-0.858,-1.969 -1.287,-4.137 -1.287,-6.505c-0,-2.369 0.429,-4.537 1.287,-6.505c0.859,-1.969 2.05,-3.678 3.575,-5.129c1.524,-1.45 3.33,-2.568 5.417,-3.352c2.087,-0.785 4.359,-1.177 6.816,-1.177c2.871,-0 5.439,0.503 7.704,1.51c2.264,1.006 4.151,2.457 5.661,4.351l-5.595,5.062c-1.006,-1.184 -2.109,-2.087 -3.308,-2.709c-1.199,-0.621 -2.538,-0.932 -4.018,-0.932c-1.273,-0 -2.442,0.207 -3.508,0.622c-1.066,0.414 -1.976,1.014 -2.731,1.798c-0.755,0.784 -1.347,1.724 -1.776,2.82c-0.429,1.095 -0.644,2.308 -0.644,3.641c0,1.332 0.215,2.545 0.644,3.641c0.429,1.095 1.021,2.035 1.776,2.819c0.755,0.785 1.665,1.384 2.731,1.799c1.066,0.414 2.235,0.621 3.508,0.621c1.48,0 2.819,-0.311 4.018,-0.932c1.199,-0.622 2.302,-1.525 3.308,-2.709l5.595,5.062c-1.51,1.865 -3.397,3.308 -5.661,4.329c-2.265,1.022 -4.833,1.532 -7.704,1.532Zm-39.608,0c-2.486,0 -4.78,-0.399 -6.882,-1.199c-2.102,-0.799 -3.93,-1.931 -5.484,-3.396c-1.554,-1.466 -2.76,-3.175 -3.619,-5.129c-0.858,-1.954 -1.287,-4.1 -1.287,-6.438c-0,-2.339 0.429,-4.485 1.287,-6.439c0.859,-1.954 2.065,-3.663 3.619,-5.128c1.554,-1.466 3.382,-2.598 5.484,-3.397c2.102,-0.799 4.396,-1.199 6.882,-1.199c2.517,-0 4.818,0.4 6.905,1.199c2.087,0.799 3.9,1.931 5.439,3.397c1.54,1.465 2.746,3.174 3.619,5.128c0.873,1.954 1.31,4.1 1.31,6.439c0,2.338 -0.437,4.492 -1.31,6.46c-0.873,1.969 -2.079,3.678 -3.619,5.129c-1.539,1.45 -3.352,2.575 -5.439,3.374c-2.087,0.8 -4.388,1.199 -6.905,1.199Zm-70.756,-10.503c0.119,0.422 0.282,0.815 0.489,1.179c0.488,0.858 1.191,1.517 2.109,1.976c0.918,0.458 2.013,0.688 3.286,0.688c1.184,-0 2.198,-0.17 3.041,-0.511c0.844,-0.34 1.68,-0.866 2.509,-1.576l4.44,4.618c-1.154,1.273 -2.575,2.242 -4.262,2.908c-1.688,0.666 -3.686,0.999 -5.995,0.999c-2.841,0 -5.321,-0.54 -7.437,-1.62c-2.117,-1.081 -3.76,-2.561 -4.929,-4.441c-1.169,-1.88 -1.754,-4.018 -1.754,-6.416c0,-2.398 0.57,-4.536 1.71,-6.416c1.139,-1.88 2.716,-3.345 4.729,-4.396c2.013,-1.051 4.277,-1.576 6.793,-1.576c2.368,-0 4.529,0.481 6.483,1.443c1.954,0.962 3.508,2.375 4.662,4.24c1.155,1.865 1.732,4.13 1.732,6.794c0,0.296 -0.015,0.636 -0.044,1.021c-0.03,0.385 -0.059,0.74 -0.089,1.066l-17.479,-0l0.006,0.02Zm129.857,9.882l-0,-31.082l8.791,-0l0,31.082l-8.791,-0Zm54.393,-0l0,-31.082l8.792,-0l-0,24.11l14.83,0l0,6.972l-23.622,-0Zm-29.458,-6.039l-2.423,6.039l-8.969,-0l13.72,-31.082l8.659,-0l13.764,31.082l-9.147,-0l-2.423,-6.039l-13.181,-0Zm-84.036,-0.622c1.184,0 2.287,-0.207 3.308,-0.621c1.022,-0.415 1.91,-1.014 2.665,-1.799c0.754,-0.784 1.346,-1.724 1.776,-2.819c0.429,-1.096 0.644,-2.309 0.644,-3.641c-0,-1.362 -0.215,-2.583 -0.644,-3.664c-0.43,-1.08 -1.022,-2.013 -1.776,-2.797c-0.755,-0.784 -1.643,-1.384 -2.665,-1.798c-1.021,-0.415 -2.124,-0.622 -3.308,-0.622c-1.184,-0 -2.286,0.207 -3.308,0.622c-1.021,0.414 -1.909,1.014 -2.664,1.798c-0.755,0.784 -1.347,1.717 -1.776,2.797c-0.429,1.081 -0.644,2.302 -0.644,3.664c0,1.332 0.215,2.545 0.644,3.641c0.429,1.095 1.021,2.035 1.776,2.819c0.755,0.785 1.643,1.384 2.664,1.799c1.022,0.414 2.124,0.621 3.308,0.621Zm86.638,-5.861l7.977,-0l-3.988,-9.938l-3.989,9.938Zm-157.516,-1.829c0.1,-0.574 0.272,-1.099 0.515,-1.576c0.414,-0.814 0.999,-1.444 1.754,-1.888c0.755,-0.444 1.635,-0.666 2.642,-0.666c1.006,0 1.887,0.222 2.642,0.666c0.755,0.444 1.347,1.066 1.776,1.865c0.248,0.463 0.42,0.975 0.514,1.537l0.012,0.062l-9.855,-0Z"></path></svg> 