<?xml version="1.0" encoding="UTF-8"?> <svg xmlns="http://www.w3.org/2000/svg" width="100%" height="100%" viewBox="0 0 323 103" version="1.1" fill="#fff" style="fill-rule:evenodd;clip-rule:evenodd;stroke-linejoin:round;stroke-miterlimit:2;"><path d="M322.069,51.145c-0,-28.228 -22.918,-51.145 -51.145,-51.145l-219.779,0c-28.228,0 -51.145,22.917 -51.145,51.145c-0,28.227 22.917,51.144 51.145,51.144l219.779,0c28.227,0 51.145,-22.917 51.145,-51.144Zm-2,-0c-0,27.123 -22.021,49.144 -49.145,49.144c0,0 -219.779,0 -219.779,0c-27.124,0 -49.145,-22.021 -49.145,-49.144c0,-27.124 22.021,-49.145 49.145,-49.145c-0,0 219.779,0 219.779,0c27.124,0 49.145,22.021 49.145,49.145Z"></path><path d="M149.54,68.25l-0,-31.082l14.697,-0c3.434,-0 6.453,0.636 9.058,1.909c2.605,1.273 4.64,3.064 6.106,5.373c1.465,2.309 2.198,5.062 2.198,8.259c-0,3.167 -0.733,5.913 -2.198,8.236c-1.466,2.324 -3.501,4.122 -6.106,5.395c-2.605,1.273 -5.624,1.91 -9.058,1.91l-14.697,-0Zm8.791,-7.016l5.551,-0c1.776,-0 3.323,-0.333 4.64,-0.999c1.317,-0.666 2.346,-1.643 3.086,-2.931c0.74,-1.287 1.11,-2.819 1.11,-4.595c-0,-1.806 -0.37,-3.345 -1.11,-4.618c-0.74,-1.273 -1.769,-2.243 -3.086,-2.909c-1.317,-0.666 -2.864,-0.999 -4.64,-0.999l-5.551,0l0,17.051Z" style="fill-rule:nonzero;"></path><rect x="190.657" y="37.168" width="8.792" height="31.082" style="fill-rule:nonzero;"></rect><path d="M210.15,68.25l-0,-31.082l14.209,-0c2.841,-0 5.291,0.458 7.348,1.376c2.058,0.918 3.649,2.242 4.774,3.974c1.124,1.732 1.687,3.782 1.687,6.15c-0,2.338 -0.563,4.359 -1.687,6.061c-1.125,1.702 -2.716,3.005 -4.774,3.907c-2.057,0.903 -4.507,1.355 -7.348,1.355l-9.325,-0l3.907,-3.686l0,11.945l-8.791,-0Zm19.226,-0l-7.726,-11.323l9.369,-0l7.77,11.323l-9.413,-0Zm-10.435,-11.012l-3.907,-4.041l8.792,0c1.835,0 3.204,-0.4 4.107,-1.199c0.903,-0.799 1.354,-1.909 1.354,-3.33c0,-1.451 -0.451,-2.575 -1.354,-3.375c-0.903,-0.799 -2.272,-1.199 -4.107,-1.199l-8.792,0l3.907,-4.04l0,17.184Z" style="fill-rule:nonzero;"></path><path d="M47.127,31.816c0.894,-0.895 2.109,-1.4 3.376,-1.401l17.793,0c1.266,0.001 2.481,0.506 3.376,1.401l10.873,10.873c0.895,0.895 1.4,2.11 1.401,3.376l-0,24.16c-0,2.62 -2.157,4.777 -4.777,4.777l-28.663,-0c-2.621,-0 -4.777,-2.157 -4.777,-4.777l-0,-35.033c-0,-1.267 0.503,-2.484 1.401,-3.376l-0.003,0Zm14.879,13.017c0.629,0.447 1.003,1.173 1.003,1.945c-0,0.498 -0.156,0.984 -0.446,1.389l-4.449,6.23c-0.448,0.626 -1.172,0.998 -1.942,0.998c-0.633,-0 -1.241,-0.252 -1.689,-0.699l-2.668,-2.669c-0.412,-0.442 -0.641,-1.024 -0.641,-1.628c-0,-1.311 1.078,-2.389 2.388,-2.389c0.604,0 1.187,0.229 1.629,0.641l0.675,0.672l2.809,-3.93c0.761,-1.066 2.264,-1.318 3.331,-0.557l-0,-0.003Zm3.025,5.882c0,-1.31 1.079,-2.389 2.389,-2.389l7.962,0c1.31,0 2.389,1.079 2.389,2.389c-0,1.31 -1.079,2.388 -2.389,2.388l-7.962,0c-1.31,0 -2.389,-1.078 -2.389,-2.388m0,12.64c0,-1.31 1.079,-2.388 2.389,-2.388l7.962,-0c1.31,-0 2.389,1.078 2.389,2.388c-0,1.311 -1.079,2.389 -2.389,2.389l-7.962,-0c-1.31,-0 -2.389,-1.078 -2.389,-2.389m-2.468,-2.35c0.311,-0.414 0.478,-0.917 0.478,-1.434c0,-1.31 -1.078,-2.388 -2.388,-2.388c-0.79,-0 -1.531,0.392 -1.975,1.045l-2.812,3.933l-0.675,-0.675c-0.442,-0.412 -1.025,-0.641 -1.629,-0.641c-1.31,-0 -2.388,1.078 -2.388,2.388c-0,0.604 0.229,1.187 0.641,1.629l2.668,2.668c0.448,0.448 1.056,0.699 1.689,0.699c0.77,0 1.494,-0.372 1.942,-0.998l4.449,-6.226Z"></path></svg> 