<?xml version="1.0" encoding="UTF-8" standalone="no"?> <svg xmlns="http://www.w3.org/2000/svg" xmlns:xlink="http://www.w3.org/1999/xlink" xmlns:serif="http://www.serif.com/" width="100%" height="100%" viewBox="0 0 200 79" version="1.1" xml:space="preserve" style="fill-rule:evenodd;clip-rule:evenodd;stroke-linejoin:round;stroke-miterlimit:2;"> <path d="M109.211,77.342l0,-15.325l9.747,-0c14.71,-0 24.638,-6.244 24.638,-22.136c-0,-16.055 -9.657,-22.623 -24.457,-22.623l-26.894,0l-0,60.084l16.966,0Zm0,-45.894l7.852,-0c5.234,-0 9.205,1.54 9.205,9c0,7.46 -3.881,8.92 -9.205,8.92l-7.852,-0l0,-17.92Zm64.708,46.705c18.23,-0 26.081,-7.379 26.081,-18.893c0,-23.109 -33.211,-14.757 -33.211,-24.082c0,-3.081 1.986,-4.46 7.31,-4.46c6.588,0 11.552,1.298 15.252,3l7.942,-12.568c-4.242,-2.432 -10.92,-4.784 -23.645,-4.784c-12.996,0 -24.096,4.865 -24.096,19.217c-0,22.947 33.211,14.596 33.211,24.245c-0,3.081 -2.166,4.946 -9.386,4.946c-6.046,-0 -12.905,-1.946 -17.959,-5.433l-9.657,11.109c6.318,4.946 15.252,7.703 28.158,7.703" style="fill:#135029;fill-rule:nonzero;"></path> <path d="M23.438,24.773l-0.004,-0l-14.493,-0.002c-5.83,0.172 -8.794,3.031 -8.94,8.532l0.015,12.073c-0.263,5.761 2.765,9.522 8.242,9.21l10.339,0.04c3.104,-0.201 4.611,0.35 4.709,2.814l0.057,12.985c0.409,4.786 3.294,7.359 7.587,7.649l13.094,0.079c5.06,-0.076 8.801,-1.857 9.329,-7.798l-0.03,-17.108l14.496,0.018c5.831,-0.172 8.795,-2.914 8.94,-8.415l-0.014,-12.073c0.262,-5.761 -2.765,-9.523 -8.242,-9.21l-10.339,-0.04c-3.104,0.201 -4.611,-0.35 -4.709,-2.815l-0.057,-12.984c-0.409,-4.786 -3.295,-7.359 -7.587,-7.649l-13.095,-0.079c-5.059,0.076 -8.801,1.857 -9.328,7.798l0.03,16.975Zm21.046,19.803c-0.187,-3.846 -1.302,-6.755 -3.336,-8.628c-2.035,-1.874 -4.988,-2.71 -8.852,-2.409c0.367,7.693 4.484,11.616 12.188,11.037Z" style="fill:#fff;"></path> <path d="M45.831,0.079l-13.095,-0.079c-5.059,0.076 -8.801,1.857 -9.328,7.798l0.044,25.07c-0.053,13.894 8.88,20.809 21.115,20.429l-0.026,-8.725c-8.215,0.64 -12.371,-3.819 -12.271,-12.496l0.052,-22.125c0.002,-0.813 0.315,-1.183 1.419,-1.154l9.055,-0.035c1.129,0.128 1.94,0.62 1.825,2.17l0.069,9.741c0.035,6.515 5.88,11.121 10.878,11.394l10.558,0.134c1.754,-0.029 2.831,0.639 2.914,2.329l0.063,7.25c0.07,2.226 -0.648,2.606 -2.314,2.662l-13.543,0.118l-0.065,8.686l14.658,0.019c5.831,-0.172 8.795,-2.914 8.94,-8.415l-0.014,-12.073c0.262,-5.761 -2.765,-9.523 -8.242,-9.21l-10.339,-0.04c-3.104,0.201 -4.611,-0.35 -4.709,-2.815l-0.057,-12.984c-0.409,-4.786 -3.295,-7.359 -7.587,-7.649" style="fill:#f8b71d;"></path> <path d="M32.436,24.851l-0.003,-0.004l-8.999,-0.074l-14.493,-0.002c-5.83,0.172 -8.794,3.031 -8.94,8.532l0.015,12.073c-0.263,5.761 2.765,9.522 8.242,9.21l10.339,0.04c3.104,-0.201 4.611,0.35 4.709,2.814l0.057,12.985c0.409,4.786 3.294,7.359 7.587,7.649l13.094,0.079c5.06,-0.076 8.801,-1.857 9.329,-7.798l-0.044,-25.07c0.053,-13.837 -8.734,-20.753 -20.893,-20.434Zm-0.14,8.688l-8.839,0.054l-13.465,0.118c-1.666,0.056 -2.384,0.436 -2.314,2.662l0.063,7.25c0.082,1.69 1.159,2.358 2.914,2.329l10.558,0.134c4.998,0.273 10.843,4.879 10.878,11.394l0.069,9.741c-0.115,1.55 0.695,2.042 1.825,2.17l9.055,-0.035c1.104,0.029 1.417,-0.341 1.419,-1.154l0.051,-22.125c0.101,-8.677 -3.999,-13.178 -12.214,-12.538Z" style="fill:#bd1821;"></path> </svg> 