<?xml version="1.0" encoding="UTF-8"?> <svg xmlns="http://www.w3.org/2000/svg" width="100%" height="100%" viewBox="0 0 237 264" version="1.1" style="fill-rule:evenodd;clip-rule:evenodd;stroke-linejoin:round;stroke-miterlimit:2;"><path d="M4.971,40.533c-4.971,7.076 -4.971,28.119 -4.971,70.165l-0,20.7c-0,74.149 55.75,110.145 90.733,125.415c9.483,4.142 14.23,6.22 27.632,6.22c13.415,0 18.149,-2.078 27.632,-6.22c34.983,-15.283 90.733,-51.252 90.733,-125.415l-0,-20.7c-0,-42.059 -0,-63.089 -4.971,-70.165c-4.959,-7.062 -24.725,-13.835 -64.273,-27.368l-7.535,-2.578c-20.609,-7.062 -30.907,-10.587 -41.586,-10.587c-10.666,0 -20.977,3.525 -41.586,10.587l-7.535,2.565c-39.548,13.546 -59.314,20.319 -64.273,27.381Z" style="fill:url(#_Linear1);"></path><path d="M132.212,55.978l-24.37,-0.147c-9.416,0.141 -16.379,3.455 -17.36,14.512l0.08,46.656c-0.098,25.857 16.527,38.727 39.298,38.019l-0.048,-16.238c-15.29,1.191 -23.023,-7.107 -22.837,-23.255l0.096,-41.176c0.003,-1.512 0.587,-2.2 2.641,-2.147l16.852,-0.064c2.102,0.238 3.61,1.153 3.396,4.038l0.129,18.128c0.065,12.125 10.943,20.697 20.244,21.204l19.65,0.25c3.265,-0.054 5.27,1.188 5.423,4.333l0.117,13.493c0.131,4.143 -1.205,4.85 -4.306,4.955l-25.204,0.219l-0.123,16.165l27.282,0.035c10.851,-0.319 16.367,-5.423 16.638,-15.661l-0.027,-22.467c0.488,-10.722 -5.145,-17.722 -15.338,-17.141l-19.243,-0.074c-5.777,0.374 -8.581,-0.651 -8.764,-5.238l-0.106,-24.164c-0.76,-8.906 -6.131,-13.695 -14.12,-14.235" style="fill:url(#_Linear2);"></path><path d="M107.284,102.08l-0.006,-0.008l-16.749,-0.139l-26.971,-0.002c-10.851,0.319 -16.367,5.64 -16.638,15.878l0.027,22.467c-0.489,10.722 5.145,17.722 15.338,17.141l19.243,0.074c5.777,-0.374 8.581,0.651 8.764,5.238l0.106,24.164c0.76,8.907 6.131,13.695 14.12,14.235l24.369,0.147c9.417,-0.141 16.38,-3.455 17.361,-14.512l-0.081,-46.656c0.098,-25.751 -16.254,-38.621 -38.883,-38.027Zm-0.262,16.168l-16.449,0.1l-25.06,0.219c-3.101,0.105 -4.437,0.812 -4.306,4.955l0.117,13.493c0.153,3.145 2.158,4.387 5.423,4.334l19.65,0.249c9.301,0.507 20.179,9.08 20.244,21.204l0.129,18.128c-0.214,2.885 1.294,3.801 3.396,4.038l16.852,-0.064c2.054,0.053 2.638,-0.635 2.64,-2.147l0.097,-41.176c0.186,-16.148 -7.443,-24.524 -22.733,-23.333Z" style="fill:url(#_Linear3);"></path><defs><linearGradient id="_Linear1" x1="0" y1="0" x2="1" y2="0" gradientUnits="userSpaceOnUse" gradientTransform="matrix(2.08008e-14,339.703,-339.703,2.08008e-14,117.038,136.861)"><stop offset="0" style="stop-color:#fff;stop-opacity:1"></stop><stop offset="1" style="stop-color:#b3b3b3;stop-opacity:1"></stop></linearGradient><linearGradient id="_Linear2" x1="0" y1="0" x2="1" y2="0" gradientUnits="userSpaceOnUse" gradientTransform="matrix(5.00091e-15,-81.671,81.671,5.00091e-15,140.147,111.966)"><stop offset="0" style="stop-color:#f8b71d;stop-opacity:1"></stop><stop offset="1" style="stop-color:#fcda98;stop-opacity:1"></stop></linearGradient><linearGradient id="_Linear3" x1="0" y1="0" x2="1" y2="0" gradientUnits="userSpaceOnUse" gradientTransform="matrix(1.61185e-14,-263.235,263.235,1.61185e-14,125.673,394.751)"><stop offset="0" style="stop-color:#740505;stop-opacity:1"></stop><stop offset="1" style="stop-color:#bd1823;stop-opacity:1"></stop></linearGradient></defs></svg> 